<svg width="48" height="48" viewBox="0 0 48 48" fill="none" xmlns="http://www.w3.org/2000/svg">
<rect width="48" height="48" rx="24" fill="white"/>
<path d="M22.9998 15.9998V34.5464C22.9998 35.4931 22.0398 36.1464 21.1732 35.7864C18.6932 34.7464 15.6132 33.8398 13.4265 33.5464L13.0132 33.4931C11.7198 33.3331 10.6665 32.1464 10.6665 30.8531V14.9998C10.6665 13.3998 11.9598 12.1064 13.5598 12.1064H13.6532C16.1598 12.3198 19.8532 13.4931 22.2932 14.8131C22.7332 15.0531 22.9998 15.4931 22.9998 15.9998Z" fill="#B0C8CD"/>
<path d="M34.44 12.1064H34.36C34.04 12.1331 33.6933 12.1731 33.3333 12.2398C31.6933 12.5064 29.7467 13.0664 28 13.7598C27.1733 14.0931 26.4 14.4531 25.72 14.8131C25.28 15.0531 25 15.5064 25 15.9998V34.5464C25 35.4931 25.96 36.1464 26.8267 35.7864C29.3067 34.7464 32.3867 33.8398 34.5733 33.5464L34.9867 33.4931C36.28 33.3331 37.3333 32.1464 37.3333 30.8531V14.9998C37.3333 13.3998 36.04 12.1064 34.44 12.1064ZM33.6933 26.3064C33.6933 26.8264 33.32 27.0531 32.8667 26.7998L31.4533 26.0131C31.3067 25.9331 31.0667 25.9331 30.9067 26.0131L29.4933 26.7998C29.04 27.0531 28.6667 26.8264 28.6667 26.3064V22.2131C28.6667 21.5998 29.1733 21.0931 29.7867 21.0931H32.5867C33.2 21.0931 33.7067 21.5998 33.7067 22.2131V26.3064H33.6933Z" fill="#B0C8CD"/>
</svg>
