<svg width="48" height="48" viewBox="0 0 48 48" fill="none" xmlns="http://www.w3.org/2000/svg">
<rect width="48" height="48" rx="24" fill="white"/>
<rect x="11.1665" y="12.5" width="23" height="23" rx="2.5" fill="#ADB2C5" stroke="white"/>
<path d="M14 30.6673L16 32.0007L18 29.334" stroke="white" stroke-width="0.6" stroke-linecap="round" stroke-linejoin="round"/>
<path d="M14 24.0003L16 25.3337L18 22.667" stroke="white" stroke-width="0.6" stroke-linecap="round" stroke-linejoin="round"/>
<path d="M21.333 24.0003L23.333 25.3337L25.333 22.667" stroke="white" stroke-width="0.6" stroke-linecap="round" stroke-linejoin="round"/>
<rect x="16.1" y="10.767" width="2.46667" height="5.13333" rx="1.23333" fill="#ADB2C5" stroke="white" stroke-width="0.2"/>
<rect x="26.7665" y="10.767" width="2.46667" height="5.13333" rx="1.23333" fill="#ADB2C5" stroke="white" stroke-width="0.2"/>
<rect x="10.6665" y="17.334" width="24" height="1.33333" fill="white"/>
<path d="M32 27.5781V29.4281" stroke="white" stroke-miterlimit="10" stroke-linecap="round"/>
<path d="M32.0107 25.1113C29.9663 25.1113 28.3107 26.7669 28.3107 28.8113V29.978C28.3107 30.3558 28.1552 30.9224 27.9607 31.2447L27.2552 32.4224C26.8218 33.1502 27.1218 33.9613 27.9218 34.228C30.5774 35.1113 33.4496 35.1113 36.1052 34.228C36.8552 33.978 37.1774 33.1002 36.7718 32.4224L36.0663 31.2447C35.8718 30.9224 35.7163 30.3502 35.7163 29.978V28.8113C35.7107 26.778 34.0441 25.1113 32.0107 25.1113Z" fill="#ADB2C5" stroke="white" stroke-miterlimit="10" stroke-linecap="round"/>
<path d="M33.8499 34.4561C33.8499 35.4727 33.0166 36.3061 31.9999 36.3061C31.4943 36.3061 31.0277 36.0949 30.6943 35.7616C30.361 35.4283 30.1499 34.9616 30.1499 34.4561" fill="#ADB2C5"/>
<path d="M33.8499 34.4561C33.8499 35.4727 33.0166 36.3061 31.9999 36.3061C31.4943 36.3061 31.0277 36.0949 30.6943 35.7616C30.361 35.4283 30.1499 34.9616 30.1499 34.4561" stroke="white" stroke-miterlimit="10"/>
</svg>
