<svg width="48" height="48" viewBox="0 0 48 48" fill="none" xmlns="http://www.w3.org/2000/svg">
<rect width="48" height="48" rx="24" fill="white"/>
<path d="M24.9252 32.5555C24.8962 32.5815 24.8729 32.6134 24.857 32.649C24.8411 32.6846 24.8329 32.7232 24.833 32.7622V36.7778H32.4886C32.6166 36.7778 32.7408 36.7336 32.84 36.6526C32.9392 36.5716 33.0074 36.4588 33.033 36.3333L33.8208 32.3444V32.3233C33.986 31.0176 34.0332 29.6997 33.9619 28.3855C33.96 28.3447 33.9491 28.3047 33.9299 28.2686C33.9107 28.2324 33.8837 28.201 33.8508 28.1767C33.8173 28.1525 33.779 28.1362 33.7384 28.1287C33.6979 28.1212 33.6562 28.1228 33.6163 28.1333C30.4101 28.8988 27.4314 30.4144 24.9252 32.5555Z" fill="#CFCABA"/>
<path d="M14.2699 26.4504C14.2624 26.4904 14.2638 26.5315 14.2739 26.5709C14.2841 26.6103 14.3029 26.6469 14.3288 26.6782C14.355 26.7096 14.3878 26.7348 14.4249 26.7521C14.462 26.7694 14.5024 26.7783 14.5433 26.7782H33.4577C33.4984 26.7782 33.5386 26.7693 33.5755 26.752C33.6124 26.7348 33.645 26.7096 33.6711 26.6783C33.6972 26.6471 33.7161 26.6104 33.7264 26.5711C33.7368 26.5317 33.7384 26.4905 33.731 26.4504C33.4545 24.848 32.8623 23.3165 31.9888 21.9449C30.4712 19.6353 29.891 16.834 30.3666 14.1115L30.7999 11.8893C30.8155 11.8081 30.8136 11.7245 30.7944 11.6441C30.7753 11.5636 30.7393 11.4882 30.6888 11.4227C30.6344 11.361 30.5678 11.3114 30.4932 11.277C30.4186 11.2425 30.3376 11.224 30.2555 11.2227H17.7444C17.6622 11.224 17.5812 11.2425 17.5066 11.277C17.432 11.3114 17.3654 11.361 17.311 11.4227C17.2605 11.4882 17.2245 11.5636 17.2054 11.6441C17.1862 11.7245 17.1844 11.8081 17.1999 11.8893L17.6333 14.1115C18.1088 16.834 17.5287 19.6353 16.011 21.9449C15.1384 23.3168 14.5466 24.8482 14.2699 26.4504ZM23.9999 21.5004C24.1647 21.5004 24.3259 21.5493 24.4629 21.6409C24.5999 21.7324 24.7067 21.8626 24.7698 22.0149C24.8329 22.1671 24.8494 22.3347 24.8172 22.4963C24.7851 22.658 24.7057 22.8065 24.5892 22.923C24.4726 23.0396 24.3241 23.1189 24.1625 23.1511C24.0008 23.1832 23.8333 23.1667 23.681 23.1037C23.5287 23.0406 23.3986 22.9338 23.307 22.7967C23.2155 22.6597 23.1666 22.4986 23.1666 22.3338C23.168 22.1132 23.2563 21.9021 23.4123 21.7461C23.5682 21.5902 23.7794 21.5019 23.9999 21.5004Z" fill="#CFCABA"/>
<path d="M14.3844 28.1346C14.3446 28.1238 14.3029 28.1221 14.2623 28.1296C14.2217 28.1371 14.1833 28.1536 14.15 28.1779C14.1171 28.202 14.09 28.2332 14.0708 28.2692C14.0516 28.3051 14.0407 28.345 14.0389 28.3857C13.967 29.6999 14.0143 31.0178 14.18 32.3235V32.3435L14.9667 36.3335C14.9923 36.459 15.0605 36.5717 15.1597 36.6527C15.2589 36.7337 15.383 36.7779 15.5111 36.7779H23.1667V32.7679C23.1667 32.7289 23.1585 32.6903 23.1426 32.6547C23.1267 32.6191 23.1035 32.5873 23.0744 32.5613C20.5691 30.4185 17.5907 28.9013 14.3844 28.1346Z" fill="#CFCABA"/>
<path d="M14.6988 15.8614C14.6257 15.7741 14.5272 15.7119 14.417 15.6834C14.3069 15.6549 14.1905 15.6616 14.0843 15.7025C13.9781 15.7419 13.8865 15.8128 13.8218 15.9058C13.7571 15.9987 13.7223 16.1092 13.7221 16.2225V16.778C13.7221 16.8517 13.6928 16.9224 13.6408 16.9745C13.5887 17.0266 13.518 17.0558 13.4443 17.0558H12.0554C11.7608 17.0558 11.4781 17.1729 11.2698 17.3813C11.0614 17.5896 10.9443 17.8722 10.9443 18.1669C10.9443 18.4616 11.0614 18.7442 11.2698 18.9526C11.4781 19.161 11.7608 19.278 12.0554 19.278H13.4443C13.518 19.278 13.5887 19.3073 13.6408 19.3594C13.6928 19.4115 13.7221 19.4821 13.7221 19.5558V20.1114C13.7224 20.2247 13.7573 20.3352 13.8221 20.4281C13.887 20.521 13.9787 20.5919 14.085 20.6312C14.1913 20.6705 14.307 20.6764 14.4168 20.648C14.5265 20.6196 14.6249 20.5584 14.6988 20.4725L16.3654 18.528C16.4515 18.4274 16.4988 18.2993 16.4988 18.1669C16.4988 18.0345 16.4515 17.9064 16.3654 17.8058L14.6988 15.8614Z" fill="#CFCABA"/>
<path d="M35.9445 17.056H34.5556C34.4819 17.056 34.4113 17.0268 34.3592 16.9747C34.3071 16.9226 34.2778 16.8519 34.2778 16.7783V16.2227C34.2776 16.1093 34.2426 15.9987 34.1777 15.9057C34.1127 15.8128 34.0209 15.7419 33.9145 15.7027C33.8083 15.6616 33.6919 15.6549 33.5817 15.6834C33.4715 15.7119 33.373 15.7742 33.3 15.8616L31.6334 17.806C31.5473 17.9067 31.5 18.0347 31.5 18.1671C31.5 18.2996 31.5473 18.4276 31.6334 18.5283L33.3 20.4727C33.3738 20.559 33.4723 20.6206 33.5822 20.6493C33.6922 20.6779 33.8082 20.6721 33.9147 20.6328C34.0213 20.5934 34.1132 20.5224 34.1781 20.4292C34.243 20.336 34.2778 20.2252 34.2778 20.1116V19.556C34.2778 19.4824 34.3071 19.4117 34.3592 19.3596C34.4113 19.3075 34.4819 19.2783 34.5556 19.2783H35.9445C36.2392 19.2783 36.5218 19.1612 36.7302 18.9528C36.9385 18.7444 37.0556 18.4618 37.0556 18.1671C37.0556 17.8725 36.9385 17.5898 36.7302 17.3815C36.5218 17.1731 36.2392 17.056 35.9445 17.056Z" fill="#CFCABA"/>
</svg>
