<svg width="48" height="48" viewBox="0 0 48 48" fill="none" xmlns="http://www.w3.org/2000/svg">
<rect width="48" height="48" rx="24" fill="white"/>
<circle cx="24" cy="14.667" r="4" fill="#B6B4CE"/>
<rect x="18.6665" y="18.667" width="10.6667" height="14.6667" rx="2" fill="#B6B4CE"/>
<path d="M33.3627 33.4216C34.5154 33.0374 35.1384 31.7915 34.7542 30.6388C34.3699 29.4862 33.124 28.8632 31.9713 29.2474L19.9713 33.2474C18.8187 33.6316 18.1957 34.8776 18.5799 36.0302C18.9642 37.1829 20.2101 37.8059 21.3627 37.4216L33.3627 33.4216Z" fill="#B6B4CE" stroke="white" stroke-width="0.4"/>
<path d="M14.6382 33.4216C13.4856 33.0374 12.8626 31.7915 13.2468 30.6388C13.6311 29.4862 14.877 28.8632 16.0296 29.2474L28.0296 33.2474C29.1823 33.6316 29.8053 34.8776 29.421 36.0302C29.0368 37.1829 27.7909 37.8059 26.6382 37.4216L14.6382 33.4216Z" fill="#B6B4CE" stroke="white" stroke-width="0.4"/>
<path d="M28 21.334L31.3604 25.8145C31.7863 26.3823 32.2519 26.9192 32.7538 27.4211L36 30.6673" stroke="#B6B4CE" stroke-width="2.8" stroke-linecap="round"/>
<path d="M20 21.334L16.6396 25.8145C16.2137 26.3823 15.7481 26.9192 15.2462 27.4211L12 30.6673" stroke="#B6B4CE" stroke-width="2.8" stroke-linecap="round"/>
</svg>
