<svg width="48" height="48" viewBox="0 0 48 48" fill="none" xmlns="http://www.w3.org/2000/svg">
<rect width="48" height="48" rx="24" fill="white"/>
<path d="M37.3333 14.8137V29.9603C37.3333 31.8937 35.9466 32.707 34.2533 31.7737L31.68 30.3337C31.4666 30.2137 31.3333 29.987 31.3333 29.747V19.987C31.3333 16.6003 28.5733 13.8403 25.1866 13.8403H19.76C19.2666 13.8403 18.92 13.3203 19.1466 12.8937C19.84 11.5737 21.2266 10.667 22.8133 10.667H33.1866C35.4666 10.667 37.3333 12.5337 37.3333 14.8137Z" fill="#DDDDDD"/>
<path d="M25.1865 15.8398H14.8132C12.5332 15.8398 10.6665 17.7065 10.6665 19.9865V35.1332C10.6665 37.0665 12.0532 37.8798 13.7465 36.9465L18.9865 34.0265C19.5465 33.7198 20.4532 33.7198 21.0132 34.0265L26.2532 36.9465C27.9465 37.8798 29.3332 37.0665 29.3332 35.1332V19.9865C29.3332 17.7065 27.4665 15.8398 25.1865 15.8398ZM22.6665 24.9998H20.9998V26.6665C20.9998 27.2132 20.5465 27.6665 19.9998 27.6665C19.4532 27.6665 18.9998 27.2132 18.9998 26.6665V24.9998H17.3332C16.7865 24.9998 16.3332 24.5465 16.3332 23.9998C16.3332 23.4532 16.7865 22.9998 17.3332 22.9998H18.9998V21.3332C18.9998 20.7865 19.4532 20.3332 19.9998 20.3332C20.5465 20.3332 20.9998 20.7865 20.9998 21.3332V22.9998H22.6665C23.2132 22.9998 23.6665 23.4532 23.6665 23.9998C23.6665 24.5465 23.2132 24.9998 22.6665 24.9998Z" fill="#DDDDDD"/>
</svg>
