<svg width="48" height="48" viewBox="0 0 48 48" fill="none" xmlns="http://www.w3.org/2000/svg">
<rect width="48" height="48" rx="24" fill="white"/>
<path d="M28.6398 12H18.0265C13.4265 12 10.6665 14.7467 10.6665 19.36V29.96C10.6665 34.5867 13.4265 37.3333 18.0265 37.3333H28.6265C33.2398 37.3333 35.9865 34.5867 35.9865 29.9733V19.36C35.9998 14.7467 33.2398 12 28.6398 12Z" fill="#B4CDB4"/>
<path d="M29.2051 12.3285L29.2051 12.3285L29.2067 12.3269C30.3815 11.1522 31.4573 10.6477 32.462 10.6534C33.4676 10.659 34.5286 11.1763 35.6715 12.3255C36.8339 13.5008 37.3398 14.5681 37.3398 15.5867C37.3398 16.5887 36.8372 17.6289 35.6729 18.7932L35.6713 18.7947L34.195 20.2844C34.1946 20.2846 34.1942 20.2848 34.1936 20.285C34.1921 20.2856 34.1905 20.2861 34.189 20.2864L34.1872 20.2867L34.1867 20.2867L34.1865 20.2867L34.1865 20.2867H34.1865L34.1606 20.2866C34.1589 20.2865 34.1573 20.2865 34.1558 20.2865C31.0652 19.3953 28.5911 16.9161 27.7072 13.8227L27.7073 13.8227L27.7051 13.8153L29.2051 12.3285Z" fill="white" stroke="#B4CDB4"/>
<path d="M31.5962 22.344L31.6061 22.3487L31.6162 22.353C31.6495 22.3673 31.6829 22.3816 31.7162 22.3959C31.7959 22.4302 31.8754 22.4644 31.9548 22.498L25.3263 29.1266L25.3262 29.1265L25.3213 29.1316C25.1377 29.3204 24.8515 29.5204 24.5246 29.6854C24.1978 29.8503 23.8674 29.9616 23.6092 29.9985C23.6092 29.9985 23.6091 29.9985 23.6091 29.9985L19.6622 30.5566C19.5172 30.5698 19.3967 30.5801 19.2798 30.5801C18.7285 30.5801 18.2614 30.3946 17.9267 30.0599C17.5376 29.6708 17.3395 29.0515 17.4414 28.3378C17.4414 28.3377 17.4414 28.3376 17.4414 28.3375L18.0147 24.3649L18.0148 24.3642C18.0513 24.1085 18.1647 23.7789 18.332 23.4504C18.499 23.1224 18.7006 22.8331 18.8867 22.647L25.5172 16.0165C25.5675 16.136 25.6213 16.2582 25.6794 16.3836C25.8453 16.7428 26.0259 17.0907 26.235 17.4395C26.3957 17.7202 26.5743 17.9977 26.7359 18.2067C26.9081 18.4814 27.1013 18.7305 27.2473 18.8963C27.3285 19.0286 27.4148 19.1213 27.4569 19.1642C27.8728 19.659 28.3231 20.1249 28.7587 20.4794C28.8115 20.5315 28.8605 20.5768 28.903 20.6135L28.9035 20.614C28.9239 20.6316 28.9632 20.6655 29.0105 20.6977C29.2311 20.8816 29.483 21.0909 29.7181 21.2402C29.9811 21.4332 30.2549 21.6108 30.5254 21.7732C30.8693 21.9878 31.236 22.1705 31.5962 22.344Z" fill="white" stroke="#B4CDB4"/>
</svg>
