<svg width="24" height="25" viewBox="0 0 24 25" fill="none" xmlns="http://www.w3.org/2000/svg">
<path d="M15.7997 2.71048C15.3897 2.30048 14.6797 2.58048 14.6797 3.15048V6.64048C14.6797 8.10048 15.9197 9.31048 17.4297 9.31048C18.3797 9.32048 19.6997 9.32048 20.8297 9.32048C21.3997 9.32048 21.6997 8.65048 21.2997 8.25048C19.8597 6.80048 17.2797 4.19048 15.7997 2.71048Z" fill="#5AD7AE"/>
<path d="M14.7596 19.7598C12.4096 19.9298 12.4096 23.3298 14.7596 23.4998H20.3196C20.9896 23.4998 21.6496 23.2498 22.1396 22.7998C23.7896 21.3598 22.9096 18.4798 20.7396 18.2098C19.9596 13.5198 13.1796 15.2998 14.7796 19.7698" fill="#5AD7AE"/>
<path d="M21.5 11.69V14.94C21.5 15.24 21.06 15.38 20.84 15.17C20.36 14.7 19.77 14.34 19.09 14.13C17.41 13.61 15.46 14.12 14.25 15.4C13.44 16.24 13.03 17.31 13.04 18.47C13.04 18.66 12.95 18.83 12.8 18.94C12 19.55 11.5 20.51 11.5 21.62C11.5 21.7 11.5 21.78 11.51 21.86C11.53 22.18 11.3 22.49 10.97 22.49H8.07C4.99 22.49 2.5 20.49 2.5 16.92V8.07C2.5 4.5 4.99 2.5 8.07 2.5H12.31C12.86 2.5 13.31 2.95 13.31 3.5V6.39C13.31 8.77 15.23 10.69 17.61 10.69H20.5C21.05 10.69 21.5 11.14 21.5 11.69Z" fill="#5AD7AE"/>
</svg>
