<svg width="48" height="48" viewBox="0 0 48 48" fill="none" xmlns="http://www.w3.org/2000/svg">
<rect width="48" height="48" rx="24" fill="white"/>
<rect x="13.3335" y="10.667" width="18.6667" height="26.6667" rx="2" fill="#C5B2BC"/>
<rect x="15.8" y="13.134" width="19.0667" height="24.4" rx="2.2" fill="#C5B2BC" stroke="white" stroke-width="0.4"/>
<path d="M20.4953 22.6666H18.8975L21.332 15.6143H23.2535L25.6847 22.6666H24.0869L22.3203 17.2258H22.2652L20.4953 22.6666ZM20.3954 19.8946H24.1695V21.0585H20.3954V19.8946Z" fill="white"/>
<path d="M28.0142 22.7665C27.6767 22.7665 27.376 22.7079 27.112 22.5908C26.848 22.4715 26.6391 22.2958 26.4853 22.064C26.3338 21.8298 26.258 21.5383 26.258 21.1893C26.258 20.8955 26.3119 20.6487 26.4198 20.449C26.5277 20.2492 26.6747 20.0885 26.8606 19.9669C27.0466 19.8452 27.2578 19.7534 27.4942 19.6914C27.733 19.6294 27.9832 19.5858 28.2449 19.5605C28.5525 19.5284 28.8005 19.4986 28.9887 19.471C29.177 19.4412 29.3136 19.3975 29.3985 19.3402C29.4834 19.2828 29.5259 19.1978 29.5259 19.0853V19.0647C29.5259 18.8466 29.457 18.6778 29.3193 18.5585C29.1838 18.4391 28.991 18.3794 28.7408 18.3794C28.4768 18.3794 28.2667 18.4379 28.1106 18.555C27.9545 18.6698 27.8512 18.8144 27.8007 18.9889L26.4439 18.8787C26.5128 18.5573 26.6483 18.2795 26.8503 18.0454C27.0523 17.8089 27.3129 17.6276 27.632 17.5013C27.9534 17.3728 28.3253 17.3085 28.7477 17.3085C29.0415 17.3085 29.3227 17.3429 29.5913 17.4118C29.8622 17.4806 30.1021 17.5874 30.311 17.732C30.5222 17.8767 30.6887 18.0626 30.8103 18.2899C30.932 18.5149 30.9928 18.7846 30.9928 19.0991V22.6666H29.6017V21.9331H29.5603C29.4754 22.0984 29.3618 22.2442 29.2194 22.3705C29.0771 22.4944 28.9061 22.592 28.7063 22.6632C28.5066 22.732 28.2759 22.7665 28.0142 22.7665ZM28.4343 21.7541C28.6501 21.7541 28.8406 21.7116 29.0059 21.6267C29.1712 21.5394 29.3009 21.4223 29.3951 21.2754C29.4892 21.1285 29.5362 20.9621 29.5362 20.7761V20.2148C29.4903 20.2447 29.4272 20.2722 29.3468 20.2975C29.2688 20.3204 29.1804 20.3422 29.0817 20.3629C28.983 20.3812 28.8843 20.3985 28.7855 20.4145C28.6868 20.4283 28.5973 20.4409 28.517 20.4524C28.3448 20.4777 28.1944 20.5178 28.0658 20.5729C27.9373 20.628 27.8374 20.7026 27.7663 20.7968C27.6951 20.8886 27.6595 21.0034 27.6595 21.1411C27.6595 21.3408 27.7318 21.4935 27.8765 21.5991C28.0234 21.7024 28.2093 21.7541 28.4343 21.7541Z" fill="white"/>
<rect x="26.667" y="24" width="5.33333" height="2.66667" rx="1.33333" fill="white"/>
<rect x="18.667" y="28" width="13.3333" height="2.66667" rx="1.33333" fill="white"/>
<rect x="18.667" y="32" width="13.3333" height="2.66667" rx="1.33333" fill="white"/>
</svg>
