<svg width="24" height="24" viewBox="0 0 24 24" fill="none" xmlns="http://www.w3.org/2000/svg">
<rect x="2" y="11" width="20" height="2" rx="0.6" fill="#ADB2C5"/>
<rect x="3.8" y="7.8" width="2.4" height="8.4" rx="1.2" fill="#ADB2C5" stroke="white" stroke-width="0.4"/>
<rect x="5.8" y="5.8" width="3.4" height="12.4" rx="1.7" fill="#ADB2C5" stroke="white" stroke-width="0.4"/>
<path d="M9 10V10C9.55228 10 10 10.4477 10 11V13C10 13.5523 9.55228 14 9 14V14V10Z" fill="#ADB2C5"/>
<path d="M14 11C14 10.4477 14.4477 10 15 10V10V14V14C14.4477 14 14 13.5523 14 13V11Z" fill="#ADB2C5"/>
<rect x="17.8" y="7.8" width="2.4" height="8.4" rx="1.2" fill="#ADB2C5" stroke="white" stroke-width="0.4"/>
<rect x="14.8" y="5.8" width="3.4" height="12.4" rx="1.7" fill="#ADB2C5" stroke="white" stroke-width="0.4"/>
</svg>
