<svg width="24" height="24" viewBox="0 0 24 24" fill="none" xmlns="http://www.w3.org/2000/svg">
<rect width="24" height="24" fill="#1DD297"/>
<path d="M15.48 3H7.52C4.07 3 2 5.06 2 8.52V16.47C2 19.94 4.07 22 7.52 22H15.47C18.93 22 20.99 19.94 20.99 16.48V8.52C21 5.06 18.93 3 15.48 3Z" fill="white"/>
<path d="M15.992 3.3354L15.992 3.3354L15.9935 3.33383C16.8616 2.46573 17.6383 2.1113 18.3459 2.11527C19.0545 2.11924 19.8204 2.48324 20.665 3.33238C21.524 4.20102 21.88 4.97168 21.88 5.69028C21.88 6.3956 21.5273 7.14581 20.6664 8.00672L20.6648 8.00831L19.6022 9.08054C17.3704 8.41849 15.5818 6.62994 14.9197 4.39813L15.992 3.3354Z" fill="#1DD297" stroke="white"/>
<path d="M17.6529 10.8751L17.6431 10.8703C17.3728 10.7402 17.0928 10.6009 16.8289 10.4363C16.625 10.3138 16.4178 10.1795 16.2181 10.0332C16.0363 9.91722 15.8443 9.75763 15.6822 9.62259C15.643 9.59542 15.612 9.56863 15.5976 9.55622L15.5957 9.5545C15.5625 9.52587 15.5253 9.4914 15.4857 9.45247C15.1535 9.18148 14.813 8.82881 14.5002 8.45699C14.4656 8.42147 14.3989 8.34893 14.3348 8.24668C14.2229 8.11863 14.0787 7.93193 13.9494 7.72638C13.8247 7.56437 13.6893 7.3536 13.5685 7.14253C13.4094 6.87703 13.2721 6.61252 13.1462 6.33989M17.6529 10.8751L13.4767 5.85018C13.5149 5.94135 13.5557 6.03443 13.6 6.12984L13.146 6.33937C13.1461 6.33954 13.1462 6.33972 13.1462 6.33989M17.6529 10.8751L17.663 10.8794C17.6881 10.8902 17.7133 10.901 17.7385 10.9118C17.7414 10.9131 17.7443 10.9143 17.7472 10.9155M17.6529 10.8751L17.7472 10.9155M13.1462 6.33989C13.1291 6.30307 13.1126 6.26661 13.0964 6.2305L8.25353 11.0734C8.12576 11.2012 7.98169 11.4063 7.86053 11.6442C7.73905 11.8828 7.65981 12.1165 7.63495 12.2906L7.63485 12.2913L7.20495 15.2706C7.20494 15.2707 7.20492 15.2708 7.20491 15.2709C7.13304 15.7745 7.27445 16.1972 7.53353 16.4563C7.75826 16.681 8.07538 16.8098 8.45998 16.8098C8.54044 16.8098 8.62448 16.8028 8.73234 16.793L11.6893 16.3749C11.6893 16.3749 11.6894 16.3749 11.6894 16.3749C11.8659 16.3496 12.1005 16.2717 12.3372 16.1522C12.5741 16.0327 12.7762 15.8902 12.9015 15.7613L12.9064 15.7563L12.9064 15.7563L17.7472 10.9155M13.1462 6.33989L17.7472 10.9155" fill="#1DD297" stroke="white"/>
</svg>
