<svg width="155" height="18" viewBox="0 0 155 18" fill="none" xmlns="http://www.w3.org/2000/svg">
<rect y="2" width="13.1313" height="3.4065" rx="1.70325" fill="#354862"/>
<path d="M0 8.70325C0 7.76257 0.76257 7 1.70325 7H11.4281C12.3688 7 13.1313 7.76257 13.1313 8.70325V8.70325C13.1313 9.64393 12.3688 10.4065 11.4281 10.4065H1.70325C0.762569 10.4065 0 9.64393 0 8.70325V8.70325Z" fill="#354862"/>
<path d="M0 13.7032C0 12.7626 0.76257 12 1.70325 12H11.4281C12.3688 12 13.1313 12.7626 13.1313 13.7032C13.1313 14.6439 12.3688 15.4065 11.4281 15.4065H1.70325C0.762569 15.4065 0 14.6439 0 13.7032Z" fill="#354862"/>
<path fill-rule="evenodd" clip-rule="evenodd" d="M79.1279 4.66291C78.2037 4.2905 77.1792 4.22522 76.2132 4.47703C75.2471 4.72885 74.3925 5.28397 73.7825 6.05728C73.1725 6.83067 72.8414 7.77888 72.8414 8.75487C72.8414 9.73086 73.1725 10.6791 73.7825 11.4525C74.3925 12.2258 75.2471 12.7809 76.2132 13.0327C77.1792 13.2845 78.2037 13.2192 79.1279 12.8468C80.0522 12.4744 80.8253 11.8153 81.3265 10.9708L84.3692 12.6707C83.4829 14.1641 82.1141 15.3322 80.4746 15.9928C78.8349 16.6535 77.0167 16.7694 75.3022 16.3226C73.5878 15.8757 72.0737 14.8912 70.9943 13.5228C69.9149 12.1544 69.3303 10.4785 69.3303 8.75487C69.3303 7.03127 69.9149 5.35532 70.9943 3.98698C72.0737 2.61856 73.5878 1.63407 75.3022 1.18719C77.0167 0.740288 78.8349 0.856257 80.4746 1.51693C82.1141 2.17758 83.4829 3.34565 84.3692 4.83908L81.3265 6.53896C80.8253 5.69447 80.0522 5.03535 79.1279 4.66291Z" fill="#1DD297"/>
<path fill-rule="evenodd" clip-rule="evenodd" d="M92.6086 13.1833C95.1295 13.1833 97.173 11.2006 97.173 8.75487C97.173 6.3091 95.1295 4.32642 92.6086 4.32642C90.0878 4.32642 88.0443 6.3091 88.0443 8.75487C88.0443 11.2006 90.0878 13.1833 92.6086 13.1833ZM92.6086 16.5898C97.0686 16.5898 100.684 13.082 100.684 8.75487C100.684 4.42775 97.0686 0.919922 92.6086 0.919922C88.1487 0.919922 84.5332 4.42775 84.5332 8.75487C84.5332 13.082 88.1487 16.5898 92.6086 16.5898Z" fill="#1DD297"/>
<path d="M55.6652 7.6342H52.8694V1.33136C52.8694 -0.139298 52.046 -0.436932 51.0417 0.666064L50.3178 1.46267L44.1923 8.2032C43.3509 9.12236 43.7038 9.8752 44.9705 9.8752H47.7663V16.178C47.7663 17.6487 48.5897 17.9463 49.594 16.8433L50.3178 16.0467L56.4433 9.3062C57.2848 8.38703 56.9319 7.6342 55.6652 7.6342Z" fill="#BBEA64"/>
<path fill-rule="evenodd" clip-rule="evenodd" d="M102.826 1.10004C103.654 0.611033 104.734 0.866047 105.238 1.66963L109.524 8.50187L113.981 1.64634C114.498 0.850727 115.582 0.612602 116.402 1.11447C116.773 1.34165 117.027 1.6815 117.145 2.05928C117.217 2.251 117.256 2.45863 117.256 2.67545V14.8343C117.256 15.8038 116.47 16.5898 115.501 16.5898C114.531 16.5898 113.745 15.8038 113.745 14.8343V8.39354L111.707 11.5283C110.678 13.1111 108.293 13.0925 107.29 11.4938L105.424 8.51852V14.8343C105.424 15.8038 104.638 16.5898 103.668 16.5898C102.699 16.5898 101.913 15.8038 101.913 14.8343V2.67545C101.913 2.24895 102.065 1.85797 102.318 1.55379C102.451 1.37641 102.621 1.2211 102.826 1.10004Z" fill="#1DD297"/>
<path fill-rule="evenodd" clip-rule="evenodd" d="M119.82 1.10004C120.648 0.611033 121.728 0.866047 122.232 1.66963L126.517 8.50187L130.974 1.64634C131.491 0.850727 132.576 0.612602 133.396 1.11447C133.59 1.23351 133.752 1.38348 133.88 1.55364C134.133 1.85784 134.285 2.24888 134.285 2.67545V14.8343C134.285 15.8038 133.499 16.5898 132.529 16.5898C131.56 16.5898 130.774 15.8038 130.774 14.8343V8.33967L128.701 11.5283C127.672 13.1111 125.286 13.0925 124.284 11.4938L122.452 8.57437V14.8343C122.452 15.8038 121.666 16.5898 120.697 16.5898C119.727 16.5898 118.941 15.8038 118.941 14.8343V2.67545C118.941 2.45868 118.981 2.25108 119.053 2.05939C119.174 1.67292 119.436 1.32654 119.82 1.10004Z" fill="#1DD297"/>
<rect x="137.339" y="0.919922" width="3.51105" height="15.6699" rx="1.75553" fill="#1DD297"/>
<path fill-rule="evenodd" clip-rule="evenodd" d="M155 2.62317C155 1.68249 154.237 0.919922 153.297 0.919922L148.575 0.919922L144.239 0.919922C143.298 0.919922 142.536 1.68249 142.536 2.62317C142.536 3.56385 143.298 4.32642 144.239 4.32642L146.819 4.32642V14.8343C146.819 15.8038 147.605 16.5898 148.575 16.5898C149.544 16.5898 150.33 15.8038 150.33 14.8343V4.32642L153.297 4.32642C154.237 4.32642 155 3.56385 155 2.62317Z" fill="#1DD297"/>
<path fill-rule="evenodd" clip-rule="evenodd" d="M57.9725 0.919922C57.0319 0.919922 56.2693 1.68249 56.2693 2.62317C56.2693 3.56385 57.0319 4.32642 57.9725 4.32642H61.1145V14.8343C61.1145 15.8038 61.9005 16.5898 62.8701 16.5898C63.8396 16.5898 64.6256 15.8038 64.6256 14.8343V4.32642H67.6974C68.6381 4.32642 69.4006 3.56385 69.4006 2.62317C69.4006 1.68249 68.6381 0.919922 67.6974 0.919922H57.9725Z" fill="#1DD297"/>
<path fill-rule="evenodd" clip-rule="evenodd" d="M26.3901 0.919922C27.1658 0.919922 27.7945 1.52998 27.7945 2.28252V4.32552V4.32642L27.7945 10.7306C27.7945 13.9478 25.1065 16.5557 21.7906 16.5557C20.8211 16.5557 20.0351 15.7932 20.0351 14.8525C20.0351 13.9118 20.8211 13.1492 21.7906 13.1492C23.1674 13.1492 24.2835 12.0664 24.2835 10.7306L24.2835 4.32642H21.7032C20.7626 4.32642 20 3.56385 20 2.62317C20 1.68249 20.7626 0.919922 21.7032 0.919922L24.2835 0.919922L24.388 0.919922L26.3901 0.919922Z" fill="#1DD297"/>
<path fill-rule="evenodd" clip-rule="evenodd" d="M31.2353 0.919922C32.2048 0.919922 32.9908 1.7059 32.9908 2.67545L32.9908 10.2878C32.9908 10.6658 33.0675 11.0401 33.2166 11.3893C33.3657 11.7386 33.5843 12.0559 33.8598 12.3232C34.1353 12.5905 34.4623 12.8025 34.8223 12.9472C35.1822 13.0918 35.568 13.1663 35.9576 13.1663C36.3472 13.1663 36.733 13.0918 37.093 12.9472C37.4529 12.8025 37.78 12.5905 38.0555 12.3232C38.331 12.0559 38.5495 11.7386 38.6986 11.3893C38.8477 11.0401 38.9245 10.6658 38.9245 10.2878L38.9245 2.67545C38.9245 1.7059 39.7104 0.919922 40.68 0.919922C41.6495 0.919922 42.4355 1.7059 42.4355 2.67545L42.4355 10.2878C42.4355 11.1131 42.268 11.9304 41.9424 12.693C41.6169 13.4555 41.1397 14.1483 40.5382 14.7319C39.9367 15.3156 39.2225 15.7785 38.4366 16.0944C37.6507 16.4102 36.8083 16.5728 35.9576 16.5728C35.1069 16.5728 34.2646 16.4102 33.4786 16.0944C32.6927 15.7785 31.9786 15.3156 31.3771 14.7319C30.7755 14.1483 30.2984 13.4555 29.9728 12.693C29.6473 11.9304 29.4797 11.1131 29.4797 10.2878L29.4797 2.67545C29.4797 1.7059 30.2657 0.919922 31.2353 0.919922Z" fill="#1DD297"/>
</svg>
