<svg width="135" height="18" viewBox="0 0 135 18" fill="none" xmlns="http://www.w3.org/2000/svg">
<path fill-rule="evenodd" clip-rule="evenodd" d="M59.1279 4.66291C58.2037 4.2905 57.1792 4.22522 56.2132 4.47703C55.2471 4.72885 54.3925 5.28397 53.7825 6.05728C53.1725 6.83067 52.8414 7.77888 52.8414 8.75487C52.8414 9.73086 53.1725 10.6791 53.7825 11.4525C54.3925 12.2258 55.2471 12.7809 56.2132 13.0327C57.1792 13.2845 58.2037 13.2192 59.1279 12.8468C60.0522 12.4744 60.8253 11.8153 61.3265 10.9708L64.3692 12.6707C63.4829 14.1641 62.1141 15.3322 60.4746 15.9928C58.8349 16.6535 57.0167 16.7694 55.3022 16.3226C53.5878 15.8757 52.0737 14.8912 50.9943 13.5228C49.9149 12.1544 49.3303 10.4785 49.3303 8.75487C49.3303 7.03127 49.9149 5.35532 50.9943 3.98698C52.0737 2.61856 53.5878 1.63407 55.3022 1.18719C57.0167 0.740288 58.8349 0.856257 60.4746 1.51693C62.1141 2.17758 63.4829 3.34565 64.3692 4.83908L61.3265 6.53896C60.8253 5.69447 60.0522 5.03535 59.1279 4.66291Z" fill="#1DD297"/>
<path fill-rule="evenodd" clip-rule="evenodd" d="M72.6086 13.1833C75.1295 13.1833 77.173 11.2006 77.173 8.75487C77.173 6.3091 75.1295 4.32642 72.6086 4.32642C70.0878 4.32642 68.0443 6.3091 68.0443 8.75487C68.0443 11.2006 70.0878 13.1833 72.6086 13.1833ZM72.6086 16.5898C77.0686 16.5898 80.6841 13.082 80.6841 8.75487C80.6841 4.42775 77.0686 0.919922 72.6086 0.919922C68.1487 0.919922 64.5332 4.42775 64.5332 8.75487C64.5332 13.082 68.1487 16.5898 72.6086 16.5898Z" fill="#1DD297"/>
<path d="M35.6652 7.6342H32.8694V1.33136C32.8694 -0.139298 32.046 -0.436932 31.0417 0.666064L30.3178 1.46267L24.1923 8.2032C23.3509 9.12236 23.7038 9.8752 24.9705 9.8752H27.7663V16.178C27.7663 17.6487 28.5897 17.9463 29.594 16.8433L30.3178 16.0467L36.4433 9.3062C37.2848 8.38703 36.9319 7.6342 35.6652 7.6342Z" fill="#BBEA64"/>
<path fill-rule="evenodd" clip-rule="evenodd" d="M82.826 1.10004C83.6542 0.611033 84.7342 0.866047 85.2382 1.66963L89.5235 8.50187L93.9807 1.64634C94.498 0.850727 95.5821 0.612602 96.4021 1.11447C96.7733 1.34165 97.0268 1.6815 97.145 2.05928C97.2169 2.251 97.2562 2.45863 97.2562 2.67545V14.8343C97.2562 15.8038 96.4702 16.5898 95.5007 16.5898C94.5311 16.5898 93.7452 15.8038 93.7452 14.8343V8.39354L91.7071 11.5283C90.678 13.1111 88.2928 13.0925 87.29 11.4938L85.4239 8.51852V14.8343C85.4239 15.8038 84.6379 16.5898 83.6684 16.5898C82.6988 16.5898 81.9128 15.8038 81.9128 14.8343V2.67545C81.9128 2.24895 82.0649 1.85797 82.3178 1.55379C82.4505 1.37641 82.6209 1.2211 82.826 1.10004Z" fill="#1DD297"/>
<path fill-rule="evenodd" clip-rule="evenodd" d="M99.8195 1.10004C100.648 0.611033 101.728 0.866047 102.232 1.66963L106.517 8.50187L110.974 1.64634C111.491 0.850727 112.576 0.612602 113.396 1.11447C113.59 1.23351 113.752 1.38348 113.88 1.55364C114.133 1.85784 114.285 2.24888 114.285 2.67545V14.8343C114.285 15.8038 113.499 16.5898 112.529 16.5898C111.56 16.5898 110.774 15.8038 110.774 14.8343V8.33967L108.701 11.5283C107.672 13.1111 105.286 13.0925 104.284 11.4938L102.452 8.57437V14.8343C102.452 15.8038 101.666 16.5898 100.697 16.5898C99.7274 16.5898 98.9414 15.8038 98.9414 14.8343V2.67545C98.9414 2.45868 98.9807 2.25108 99.0525 2.05939C99.1736 1.67292 99.4359 1.32654 99.8195 1.10004Z" fill="#1DD297"/>
<rect x="117.339" y="0.919922" width="3.51105" height="15.6699" rx="1.75553" fill="#1DD297"/>
<path fill-rule="evenodd" clip-rule="evenodd" d="M135 2.62317C135 1.68249 134.237 0.919922 133.297 0.919922L128.575 0.919922L124.239 0.919922C123.298 0.919922 122.536 1.68249 122.536 2.62317C122.536 3.56385 123.298 4.32642 124.239 4.32642L126.819 4.32642V14.8343C126.819 15.8038 127.605 16.5898 128.575 16.5898C129.544 16.5898 130.33 15.8038 130.33 14.8343V4.32642L133.297 4.32642C134.237 4.32642 135 3.56385 135 2.62317Z" fill="#1DD297"/>
<path fill-rule="evenodd" clip-rule="evenodd" d="M37.9725 0.919922C37.0319 0.919922 36.2693 1.68249 36.2693 2.62317C36.2693 3.56385 37.0319 4.32642 37.9725 4.32642H41.1145V14.8343C41.1145 15.8038 41.9005 16.5898 42.8701 16.5898C43.8396 16.5898 44.6256 15.8038 44.6256 14.8343V4.32642H47.6974C48.6381 4.32642 49.4006 3.56385 49.4006 2.62317C49.4006 1.68249 48.6381 0.919922 47.6974 0.919922H37.9725Z" fill="#1DD297"/>
<path fill-rule="evenodd" clip-rule="evenodd" d="M6.39012 0.919922C7.16576 0.919922 7.79454 1.52998 7.79454 2.28252V4.32552V4.32642L7.79454 10.7306C7.79454 13.9478 5.1065 16.5557 1.79064 16.5557C0.821087 16.5557 0.0351105 15.7932 0.0351105 14.8525C0.0351105 13.9118 0.821087 13.1492 1.79064 13.1492C3.1674 13.1492 4.28348 12.0664 4.28349 10.7306L4.28349 4.32642H1.70325C0.76257 4.32642 0 3.56385 0 2.62317C0 1.68249 0.76257 0.919922 1.70325 0.919922L4.28349 0.919922L4.38804 0.919922L6.39012 0.919922Z" fill="#1DD297"/>
<path fill-rule="evenodd" clip-rule="evenodd" d="M11.2353 0.919922C12.2048 0.919922 12.9908 1.7059 12.9908 2.67545L12.9908 10.2878C12.9908 10.6658 13.0675 11.0401 13.2166 11.3893C13.3657 11.7386 13.5843 12.0559 13.8598 12.3232C14.1353 12.5905 14.4623 12.8025 14.8223 12.9472C15.1822 13.0918 15.568 13.1663 15.9576 13.1663C16.3472 13.1663 16.733 13.0918 17.093 12.9472C17.4529 12.8025 17.78 12.5905 18.0555 12.3232C18.331 12.0559 18.5495 11.7386 18.6986 11.3893C18.8477 11.0401 18.9245 10.6658 18.9245 10.2878L18.9245 2.67545C18.9245 1.7059 19.7104 0.919922 20.68 0.919922C21.6495 0.919922 22.4355 1.7059 22.4355 2.67545L22.4355 10.2878C22.4355 11.1131 22.268 11.9304 21.9424 12.693C21.6169 13.4555 21.1397 14.1483 20.5382 14.7319C19.9367 15.3156 19.2225 15.7785 18.4366 16.0944C17.6507 16.4102 16.8083 16.5728 15.9576 16.5728C15.1069 16.5728 14.2646 16.4102 13.4786 16.0944C12.6927 15.7785 11.9786 15.3156 11.3771 14.7319C10.7755 14.1483 10.2984 13.4555 9.97284 12.693C9.64729 11.9304 9.47974 11.1131 9.47974 10.2878L9.47974 2.67545C9.47974 1.7059 10.2657 0.919922 11.2353 0.919922Z" fill="#1DD297"/>
</svg>
