<svg width="389" height="52" viewBox="0 0 389 52" fill="none" xmlns="http://www.w3.org/2000/svg">
<path fill-rule="evenodd" clip-rule="evenodd" d="M170.376 13.8475C167.713 12.7415 164.761 12.5476 161.977 13.2955C159.193 14.0433 156.731 15.6919 154.973 17.9885C153.215 20.2854 152.261 23.1014 152.261 25.9999C152.261 28.8985 153.215 31.7145 154.973 34.0113C156.731 36.3079 159.193 37.9565 161.977 38.7044C164.761 39.4522 167.713 39.2584 170.376 38.1524C173.039 37.0463 175.267 35.0888 176.711 32.5808L185.479 37.6292C182.925 42.0644 178.981 45.5334 174.256 47.4954C169.532 49.4575 164.293 49.8019 159.352 48.4747C154.412 47.1475 150.049 44.2238 146.939 40.1598C143.829 36.096 142.144 31.1187 142.144 25.9999C142.144 20.8811 143.829 15.9038 146.939 11.8401C150.049 7.77611 154.412 4.85235 159.352 3.52517C164.293 2.19796 169.532 2.54237 174.256 4.50447C178.981 6.46648 182.925 9.93547 185.479 14.3707L176.711 19.4191C175.267 16.9111 173.039 14.9536 170.376 13.8475Z" fill="#1DD297"/>
<path fill-rule="evenodd" clip-rule="evenodd" d="M209.22 39.1517C216.484 39.1517 222.372 33.2634 222.372 25.9999C222.372 18.7364 216.484 12.8482 209.22 12.8482C201.957 12.8482 196.068 18.7364 196.068 25.9999C196.068 33.2634 201.957 39.1517 209.22 39.1517ZM209.22 49.2684C222.071 49.2684 232.489 38.8508 232.489 25.9999C232.489 13.1491 222.071 2.73145 209.22 2.73145C196.369 2.73145 185.951 13.1491 185.951 25.9999C185.951 38.8508 196.369 49.2684 209.22 49.2684Z" fill="#1DD297"/>
<path d="M102.769 22.6723H94.7128V3.95393C94.7128 -0.413691 92.3402 -1.29761 89.4463 1.9781L87.3606 4.34389L69.7101 24.3621C67.2854 27.0919 68.3022 29.3277 71.9522 29.3277H80.0084V48.0461C80.0084 52.4137 82.3809 53.2976 85.2748 50.0219L87.3606 47.6561L105.011 27.6379C107.436 24.9081 106.419 22.6723 102.769 22.6723Z" fill="#BBEA64"/>
<path fill-rule="evenodd" clip-rule="evenodd" d="M238.662 3.26626C241.048 1.81399 244.16 2.57134 245.612 4.95785L257.96 25.2484L270.804 4.88868C272.294 2.52584 275.418 1.81865 277.781 3.30912C278.623 3.84003 279.254 4.57817 279.651 5.41533C280.028 6.12339 280.242 6.93167 280.242 7.78986V44.2098C280.242 47.0035 277.977 49.2683 275.184 49.2683C272.39 49.2683 270.125 47.0035 270.125 44.2098V24.9267L264.252 34.2364C261.287 38.9371 254.414 38.8818 251.525 34.1341L246.147 25.2979V44.2098C246.147 47.0035 243.883 49.2683 241.089 49.2683C238.295 49.2683 236.03 47.0035 236.03 44.2098V7.78986C236.03 6.34993 236.632 5.05052 237.598 4.1293C237.904 3.80218 238.26 3.51071 238.662 3.26626Z" fill="#1DD297"/>
<path fill-rule="evenodd" clip-rule="evenodd" d="M287.628 3.26626C290.015 1.81399 293.127 2.57134 294.579 4.95785L306.927 25.2484L319.77 4.88868C321.261 2.52584 324.385 1.81865 326.748 3.30912C327.121 3.5445 327.453 3.82061 327.741 4.12803C328.707 5.04933 329.31 6.34926 329.31 7.78986V44.2098C329.31 47.0035 327.045 49.2683 324.251 49.2683C321.457 49.2683 319.193 47.0035 319.193 44.2098V24.7668L313.219 34.2364C310.254 38.9371 303.381 38.8818 300.491 34.1341L295.215 25.4638V44.2098C295.215 47.0035 292.95 49.2683 290.157 49.2683C287.363 49.2683 285.098 47.0035 285.098 44.2098V7.78986C285.098 6.93158 285.312 6.12323 285.689 5.41513C286.097 4.55413 286.753 3.79867 287.628 3.26626Z" fill="#1DD297"/>
<rect x="338.111" y="2.73145" width="10.117" height="46.537" rx="5.05852" fill="#1DD297"/>
<path fill-rule="evenodd" clip-rule="evenodd" d="M389 7.78981C389 4.99616 386.735 2.73145 383.941 2.73145L370.486 2.73145L358.143 2.73145C355.349 2.73145 353.084 4.99615 353.084 7.78981C353.084 10.5835 355.349 12.8482 358.143 12.8482L365.427 12.8482V44.2099C365.427 47.0036 367.692 49.2684 370.486 49.2684C373.28 49.2684 375.544 47.0036 375.544 44.2099V12.8482L383.941 12.8482C386.735 12.8482 389 10.5835 389 7.78981Z" fill="#1DD297"/>
<path fill-rule="evenodd" clip-rule="evenodd" d="M109.567 2.73145C106.774 2.73145 104.509 4.99615 104.509 7.78981C104.509 10.5835 106.774 12.8482 109.567 12.8482H118.47V44.2099C118.47 47.0036 120.735 49.2684 123.529 49.2684C126.323 49.2684 128.587 47.0036 128.587 44.2099V12.8482H137.288C140.082 12.8482 142.347 10.5835 142.347 7.78981C142.347 4.99615 140.082 2.73145 137.288 2.73145H109.567Z" fill="#1DD297"/>
<path fill-rule="evenodd" clip-rule="evenodd" d="M18.413 2.73145C20.648 2.73145 22.4598 4.54321 22.4598 6.77814V12.8451V12.8482L22.4598 31.8676H12.3428L12.3428 12.8482H5.05836C2.2647 12.8482 0 10.5835 0 7.78981C0 4.99615 2.26471 2.73145 5.05836 2.73145L12.3428 2.73145L12.3431 2.73145L18.413 2.73145ZM12.3428 31.8676C12.3428 35.8346 9.1268 39.0505 5.15969 39.0505C2.36595 39.0505 0.10117 41.3152 0.10117 44.1089C0.10117 46.9025 2.36595 49.1672 5.15969 49.1672C14.7143 49.1672 22.4598 41.4219 22.4598 31.8676H12.3428Z" fill="#1DD297"/>
<path fill-rule="evenodd" clip-rule="evenodd" d="M32.3746 2.73145C35.1683 2.73145 37.4331 4.99622 37.4331 7.78996L37.4331 30.5525C37.4331 31.6751 37.6542 32.7867 38.0838 33.8239C38.5134 34.861 39.1431 35.8034 39.937 36.5973C40.7308 37.3911 41.6732 38.0208 42.7104 38.4504C43.7476 38.88 44.8593 39.1011 45.982 39.1011C47.1046 39.1011 48.2163 38.88 49.2535 38.4504C50.2907 38.0208 51.2331 37.3911 52.0269 36.5973C52.8208 35.8034 53.4505 34.861 53.8801 33.8239C54.3097 32.7867 54.5309 31.6751 54.5309 30.5525V7.78997C54.5309 4.99623 56.7956 2.73145 59.5894 2.73145C62.3831 2.73145 64.6479 4.99622 64.6479 7.78996V30.5525C64.6479 33.0036 64.1651 35.4308 63.227 37.6954C62.289 39.96 60.9141 42.0176 59.1808 43.7509C57.4475 45.4841 55.3898 46.859 53.1251 47.797C50.8604 48.735 48.4332 49.2178 45.982 49.2178C43.5307 49.2178 41.1035 48.735 38.8388 47.797C36.5742 46.859 34.5165 45.4841 32.7832 43.7509C31.0499 42.0176 29.6749 39.96 28.7369 37.6954C27.7988 35.4308 27.316 33.0036 27.316 30.5525L27.316 7.78997C27.316 4.99623 29.5808 2.73145 32.3746 2.73145Z" fill="#1DD297"/>
</svg>
