<svg width="240" height="32" viewBox="0 0 240 32" fill="none" xmlns="http://www.w3.org/2000/svg">
<g filter="url(#filter0_i_155_2403)">
<path fill-rule="evenodd" clip-rule="evenodd" d="M104.844 8.52131C103.205 7.84069 101.388 7.72139 99.6753 8.18159C97.9622 8.64182 96.4469 9.65636 95.3653 11.0696C94.2836 12.4831 93.6965 14.216 93.6965 15.9997C93.6965 17.7834 94.2836 19.5164 95.3653 20.9298C96.4469 22.3431 97.9622 23.3576 99.6753 23.8179C101.388 24.2781 103.205 24.1588 104.844 23.4782C106.483 22.7975 107.853 21.5929 108.742 20.0495L114.137 23.1562C112.566 25.8856 110.139 28.0203 107.231 29.2277C104.324 30.4352 101.1 30.6471 98.06 29.8304C95.02 29.0136 92.3353 27.2144 90.4213 24.7135C88.5074 22.2127 87.4708 19.1498 87.4708 15.9997C87.4708 12.8497 88.5074 9.78676 90.4213 7.28599C92.3353 4.78507 95.02 2.98583 98.06 2.16911C101.1 1.35237 104.324 1.56431 107.231 2.77176C110.139 3.97915 112.566 6.11391 114.137 8.84328L108.742 11.95C107.853 10.4066 106.483 9.20198 104.844 8.52131Z" fill="#1DD297"/>
<path fill-rule="evenodd" clip-rule="evenodd" d="M128.747 24.0931C133.217 24.0931 136.84 20.4696 136.84 15.9997C136.84 11.5299 133.217 7.90634 128.747 7.90634C124.277 7.90634 120.654 11.5299 120.654 15.9997C120.654 20.4696 124.277 24.0931 128.747 24.0931ZM128.747 30.3188C136.655 30.3188 143.066 23.9079 143.066 15.9997C143.066 8.09153 136.655 1.68066 128.747 1.68066C120.839 1.68066 114.428 8.09153 114.428 15.9997C114.428 23.9079 120.839 30.3188 128.747 30.3188Z" fill="#1DD297"/>
<path d="M63.2405 13.9522H58.283V2.43319C58.283 -0.254579 56.8231 -0.798532 55.0422 1.21729L53.7587 2.67317L42.8972 14.9921C41.4051 16.6719 42.0308 18.0478 44.277 18.0478H49.2344V29.5668C49.2344 32.2546 50.6944 32.7985 52.4752 30.7827L53.7587 29.3268L64.6202 17.0079C66.1123 15.3281 65.4866 13.9522 63.2405 13.9522Z" fill="#BBEA64"/>
<path fill-rule="evenodd" clip-rule="evenodd" d="M146.864 2.00978C148.333 1.11608 150.248 1.58214 151.142 3.05076L158.74 15.5373L166.643 3.00819C167.561 1.55414 169.483 1.11894 170.937 2.03616C171.455 2.36278 171.843 2.81686 172.088 3.33186C172.32 3.76766 172.451 4.26518 172.451 4.79344V27.2059C172.451 28.9251 171.058 30.3187 169.339 30.3187C167.619 30.3187 166.226 28.9251 166.226 27.2059V15.3393L162.612 21.0684C160.787 23.9611 156.558 23.9271 154.78 21.0054L151.471 15.5677V27.2059C151.471 28.9251 150.077 30.3187 148.358 30.3187C146.639 30.3187 145.245 28.9251 145.245 27.2059V4.79344C145.245 3.90724 145.615 3.10753 146.21 2.54062C146.398 2.33943 146.617 2.16015 146.864 2.00978Z" fill="#1DD297"/>
<path fill-rule="evenodd" clip-rule="evenodd" d="M176.997 2.00978C178.465 1.11608 180.38 1.58214 181.274 3.05076L188.873 15.5373L196.776 3.00819C197.693 1.55414 199.615 1.11894 201.069 2.03616C201.299 2.18094 201.503 2.35076 201.681 2.53983C202.275 3.10678 202.646 3.90682 202.646 4.79344V27.2059C202.646 28.9251 201.252 30.3187 199.533 30.3187C197.814 30.3187 196.42 28.9251 196.42 27.2059V15.2408L192.744 21.0684C190.92 23.9611 186.69 23.9271 184.912 21.0054L181.665 15.6698V27.2059C181.665 28.9251 180.272 30.3187 178.553 30.3187C176.833 30.3187 175.44 28.9251 175.44 27.2059V4.79344C175.44 4.26512 175.571 3.76755 175.804 3.33171C176.055 2.80205 176.458 2.33732 176.997 2.00978Z" fill="#1DD297"/>
<rect x="208.062" y="1.68066" width="6.22568" height="28.6381" rx="3.11284" fill="#1DD297"/>
<path fill-rule="evenodd" clip-rule="evenodd" d="M239.377 4.79351C239.377 3.07433 237.984 1.68066 236.264 1.68066H227.984H220.389C218.67 1.68066 217.276 3.07433 217.276 4.7935C217.276 6.51268 218.67 7.90635 220.389 7.90635H224.872V27.206C224.872 28.9251 226.265 30.3188 227.984 30.3188C229.704 30.3188 231.097 28.9251 231.097 27.206V7.90635H236.264C237.984 7.90635 239.377 6.51268 239.377 4.79351Z" fill="#1DD297"/>
<path fill-rule="evenodd" clip-rule="evenodd" d="M67.4241 1.68066C65.7049 1.68066 64.3113 3.07433 64.3113 4.7935C64.3113 6.51268 65.7049 7.90634 67.4241 7.90634H72.9027L72.9027 27.206C72.9027 28.9251 74.2964 30.3188 76.0156 30.3188C77.7348 30.3188 79.1284 28.9251 79.1284 27.206L79.1284 7.90634H84.4825C86.2017 7.90634 87.5953 6.51268 87.5953 4.7935C87.5953 3.07433 86.2017 1.68066 84.4825 1.68066H67.4241Z" fill="#1DD297"/>
<path fill-rule="evenodd" clip-rule="evenodd" d="M0 4.7935C0 3.07433 1.39367 1.68066 3.11284 1.68066H7.59533H11.3307C12.7061 1.68066 13.821 2.7956 13.821 4.17094V7.90463V7.90634L13.821 19.6106C13.821 25.4902 9.05467 30.2565 3.1751 30.2565C1.45592 30.2565 0.0622568 28.8629 0.0622568 27.1437C0.0622568 25.4245 1.45592 24.0309 3.1751 24.0309C5.61632 24.0309 7.59533 22.0519 7.59533 19.6106L7.59533 7.90634H3.11284C1.39367 7.90634 0 6.51268 0 4.7935Z" fill="#1DD297"/>
<path fill-rule="evenodd" clip-rule="evenodd" d="M19.9222 1.68066C21.6413 1.68066 23.035 3.07433 23.035 4.7935L23.035 18.8013C23.035 19.4921 23.1711 20.1762 23.4355 20.8145C23.6998 21.4527 24.0873 22.0327 24.5758 22.5212C25.0643 23.0097 25.6443 23.3972 26.2825 23.6615C26.9208 23.9259 27.6049 24.062 28.2957 24.062C28.9866 24.062 29.6706 23.9259 30.3089 23.6615C30.9471 23.3972 31.5271 23.0097 32.0156 22.5212C32.5041 22.0327 32.8916 21.4527 33.156 20.8145C33.4203 20.1762 33.5564 19.4921 33.5564 18.8013L33.5564 4.7935C33.5564 3.07433 34.9501 1.68066 36.6692 1.68066C38.3884 1.68066 39.7821 3.07433 39.7821 4.7935V18.8013C39.7821 20.3097 39.485 21.8033 38.9077 23.1969C38.3305 24.5905 37.4844 25.8568 36.4178 26.9234C35.3512 27.99 34.0849 28.8361 32.6914 29.4133C31.2978 29.9906 29.8041 30.2877 28.2957 30.2877C26.7873 30.2877 25.2936 29.9906 23.9001 29.4133C22.5065 28.8361 21.2402 27.99 20.1736 26.9234C19.107 25.8568 18.2609 24.5905 17.6837 23.1969C17.1064 21.8033 16.8093 20.3097 16.8093 18.8013V4.7935C16.8093 3.07433 18.203 1.68066 19.9222 1.68066Z" fill="#1DD297"/>
</g>
<defs>
<filter id="filter0_i_155_2403" x="0" y="0" width="239.377" height="36" filterUnits="userSpaceOnUse" color-interpolation-filters="sRGB">
<feFlood flood-opacity="0" result="BackgroundImageFix"/>
<feBlend mode="normal" in="SourceGraphic" in2="BackgroundImageFix" result="shape"/>
<feColorMatrix in="SourceAlpha" type="matrix" values="0 0 0 0 0 0 0 0 0 0 0 0 0 0 0 0 0 0 127 0" result="hardAlpha"/>
<feOffset dy="4"/>
<feGaussianBlur stdDeviation="2"/>
<feComposite in2="hardAlpha" operator="arithmetic" k2="-1" k3="1"/>
<feColorMatrix type="matrix" values="0 0 0 0 0 0 0 0 0 0 0 0 0 0 0 0 0 0 0.25 0"/>
<feBlend mode="normal" in2="shape" result="effect1_innerShadow_155_2403"/>
</filter>
</defs>
</svg>
