<svg width="170" height="22" viewBox="0 0 170 22" fill="none" xmlns="http://www.w3.org/2000/svg">
<path fill-rule="evenodd" clip-rule="evenodd" d="M74.2923 5.85919C73.131 5.39127 71.8438 5.30925 70.63 5.62564C69.4161 5.94205 68.3424 6.63954 67.576 7.61118C66.8095 8.58291 66.3935 9.77431 66.3935 11.0006C66.3935 12.2269 66.8095 13.4183 67.576 14.39C68.3424 15.3617 69.4161 16.0592 70.63 16.3756C71.8438 16.692 73.131 16.61 74.2923 16.142C75.4537 15.6741 76.4251 14.8459 77.0548 13.7848L80.8778 15.9207C79.7641 17.7971 78.0444 19.2648 75.9843 20.0948C73.9242 20.925 71.6397 21.0707 69.4854 20.5092C67.3313 19.9477 65.4289 18.7107 64.0726 16.9913C62.7165 15.272 61.9819 13.1663 61.9819 11.0006C61.9819 8.83496 62.7165 6.72919 64.0726 5.00991C65.4289 3.29053 67.3313 2.05355 69.4854 1.49206C71.6397 0.930546 73.9242 1.07626 75.9843 1.90638C78.0444 2.73646 79.7641 4.20411 80.8778 6.08054L77.0548 8.21639C76.4251 7.15532 75.4537 6.32715 74.2923 5.85919Z" fill="#1DD297"/>
<path fill-rule="evenodd" clip-rule="evenodd" d="M91.2303 16.5648C94.3976 16.5648 96.9652 14.0736 96.9652 11.0006C96.9652 7.92758 94.3976 5.43641 91.2303 5.43641C88.0629 5.43641 85.4953 7.92758 85.4953 11.0006C85.4953 14.0736 88.0629 16.5648 91.2303 16.5648ZM91.2303 20.845C96.834 20.845 101.377 16.4375 101.377 11.0006C101.377 5.56372 96.834 1.15625 91.2303 1.15625C85.6265 1.15625 81.0837 5.56372 81.0837 11.0006C81.0837 16.4375 85.6265 20.845 91.2303 20.845Z" fill="#1DD297"/>
<path d="M44.8124 9.59212H41.2996V1.67282C41.2996 -0.175023 40.265 -0.548991 39.0031 0.836888L38.0936 1.8378L30.3971 10.3071C29.3399 11.462 29.7832 12.4079 31.3748 12.4079H34.8877V20.3272C34.8877 22.175 35.9222 22.549 37.1842 21.1631L38.0936 20.1622L45.7901 11.6929C46.8474 10.538 46.404 9.59212 44.8124 9.59212Z" fill="#BBEA64"/>
<path fill-rule="evenodd" clip-rule="evenodd" d="M104.068 1.38252C105.109 0.768095 106.466 1.08851 107.099 2.09819L112.483 10.6827L118.084 2.06893C118.734 1.06926 120.096 0.770066 121.126 1.40065C121.593 1.68608 121.911 2.11308 122.06 2.58771C122.15 2.82862 122.199 3.08952 122.199 3.36197V18.6392C122.199 19.8574 121.212 20.8449 119.994 20.8449C118.775 20.8449 117.788 19.8574 117.788 18.6392V10.5466L115.227 14.4853C113.934 16.474 110.937 16.4507 109.677 14.442L107.332 10.7036V18.6392C107.332 19.8574 106.345 20.8449 105.127 20.8449C103.908 20.8449 102.921 19.8574 102.921 18.6392V3.36197C102.921 2.82609 103.112 2.33485 103.43 1.95266C103.596 1.72978 103.811 1.53463 104.068 1.38252Z" fill="#1DD297"/>
<path fill-rule="evenodd" clip-rule="evenodd" d="M125.42 1.38252C126.461 0.768095 127.818 1.08851 128.451 2.09819L133.835 10.6827L139.436 2.06893C140.086 1.06926 141.448 0.770066 142.478 1.40065C142.723 1.55022 142.926 1.73867 143.086 1.95248C143.404 2.33469 143.595 2.82601 143.595 3.36197V18.6392C143.595 19.8574 142.608 20.8449 141.39 20.8449C140.171 20.8449 139.184 19.8574 139.184 18.6392V10.4789L136.579 14.4853C135.286 16.474 132.289 16.4507 131.029 14.442L128.728 10.7738V18.6392C128.728 19.8574 127.741 20.8449 126.523 20.8449C125.304 20.8449 124.317 19.8574 124.317 18.6392V3.36197C124.317 3.08964 124.366 2.82884 124.456 2.58802C124.609 2.10239 124.938 1.66712 125.42 1.38252Z" fill="#1DD297"/>
<rect x="147.433" y="1.15625" width="4.41153" height="19.6887" rx="2.20576" fill="#1DD297"/>
<path fill-rule="evenodd" clip-rule="evenodd" d="M169.623 3.29633C169.623 2.1144 168.665 1.15625 167.483 1.15625L161.55 1.15625L156.102 1.15625C154.92 1.15625 153.962 2.1144 153.962 3.29633C153.962 4.47826 154.92 5.43641 156.102 5.43641L159.344 5.43641V18.6392C159.344 19.8574 160.332 20.845 161.55 20.845C162.768 20.845 163.756 19.8574 163.756 18.6392V5.43641L167.483 5.43641C168.665 5.43641 169.623 4.47826 169.623 3.29633Z" fill="#1DD297"/>
<path fill-rule="evenodd" clip-rule="evenodd" d="M47.7111 1.15625C46.5292 1.15625 45.571 2.1144 45.571 3.29633C45.571 4.47826 46.5292 5.43641 47.7111 5.43641H51.659L51.659 18.6392C51.659 19.8574 52.6465 20.845 53.8647 20.845C55.0829 20.845 56.0705 19.8574 56.0705 18.6392L56.0705 5.43641H59.9301C61.112 5.43641 62.0702 4.47826 62.0702 3.29633C62.0702 2.1144 61.112 1.15625 59.9301 1.15625H47.7111Z" fill="#1DD297"/>
<path fill-rule="evenodd" clip-rule="evenodd" d="M8.02898 1.15625C9.00355 1.15625 9.79359 1.92277 9.79359 2.86831V5.43499V5.43641L9.79359 13.4831C9.79359 17.5253 6.41615 20.8022 2.24988 20.8022C1.03167 20.8022 0.0441153 19.844 0.0441153 18.6621C0.0441153 17.4802 1.03167 16.522 2.24988 16.522C3.97974 16.522 5.38206 15.1614 5.38206 13.4831L5.38206 5.43641H2.14008C0.958148 5.43641 0 4.47826 0 3.29633C0 2.1144 0.958146 1.15625 2.14008 1.15625L5.38206 1.15625L5.51343 1.15625H8.02898Z" fill="#1DD297"/>
<path fill-rule="evenodd" clip-rule="evenodd" d="M14.1169 1.15625C15.3351 1.15625 16.3227 2.1438 16.3227 3.36201L16.3227 12.9267C16.3227 13.4016 16.4191 13.8719 16.6064 14.3107C16.7938 14.7495 17.0683 15.1482 17.4145 15.4841C17.7606 15.8199 18.1716 16.0863 18.6239 16.2681C19.0761 16.4499 19.5609 16.5434 20.0504 16.5434C20.5399 16.5434 21.0247 16.4499 21.4769 16.2681C21.9292 16.0863 22.3402 15.8199 22.6863 15.4841C23.0325 15.1482 23.307 14.7495 23.4944 14.3107C23.6817 13.8719 23.7781 13.4016 23.7781 12.9267L23.7781 3.36201C23.7781 2.14381 24.7657 1.15625 25.9839 1.15625C27.2021 1.15625 28.1897 2.1438 28.1897 3.36201L28.1897 12.9267C28.1897 13.9637 27.9791 14.9906 27.5701 15.9487C27.1611 16.9068 26.5615 17.7773 25.8057 18.5106C25.0499 19.2439 24.1527 19.8256 23.1652 20.2225C22.1777 20.6193 21.1193 20.8236 20.0504 20.8236C18.9815 20.8236 17.9231 20.6193 16.9356 20.2224C15.9481 19.8256 15.0509 19.2439 14.2951 18.5106C13.5393 17.7773 12.9397 16.9068 12.5307 15.9487C12.1217 14.9906 11.9111 13.9637 11.9111 12.9267L11.9111 3.36202C11.9111 2.14381 12.8987 1.15625 14.1169 1.15625Z" fill="#1DD297"/>
</svg>
