<?xml version="1.0" encoding="UTF-8"?><svg id="a" xmlns="http://www.w3.org/2000/svg" viewBox="0 0 399.99998 344.05591"><path d="M372.93381,113.43872C319.27911,32.26465,203.69707-16.28137,114.77427,5.00812,75.856,14.32575,48.49492,35.47638,34.52696,63.12226L14.33677,96.62403c-.22424,.36932-.44983,.73798-.66895,1.10999l-.2489,.41302,.00226,.01813C-7.6053,134.28564-4.56087,182.77686,27.06077,230.61719c53.65472,81.17407,169.23676,129.72009,258.15954,108.4306,35.01849-8.38397,60.67212-26.35236,75.6391-50.00848l.01758-.0127,.242-.40698c.77997-1.2467,1.53082-2.50873,2.25146-3.78625l21.04926-35.39856-.00067-.00031c23.36017-36.45441,21.18127-86.57477-11.48523-135.99579Z" style="fill:#6742b7;"/><ellipse cx="207.32098" cy="159.65348" rx="138.14911" ry="198.40774" transform="translate(-27.82243 274.45244) rotate(-63.62112)" style="fill:#d8d5e0;"/><ellipse cx="210.64539" cy="154.22581" rx="136.6562" ry="196.31154" transform="translate(-20.88241 274.85732) rotate(-63.73063)" style="fill:#8f5ae8;"/><path d="M241.87932,106.35742c-5.56585-.96146-10.58806,.31854-13.3879,3.41214l-19.1344,23.87742-13.83398,16.0012-19.1262,23.88941c-2.79986,3.09358-7.82207,4.37357-13.3879,3.41214l-32.61785-6.54769c-5.44222-1.07573-10.58582-4.25989-13.60078-8.4196l-17.2467-25.28424c-2.9939-4.23675-3.07658-8.8307-.2129-11.83173l15.69738-18.25829c2.79983-3.0936,7.82206-4.3736,13.3879-3.41214l32.26721,6.0337c5.44221,1.07569,10.58581,4.25982,13.60078,8.41953l11.0412,16.18676,12.9908-16.37565-10.69873-15.6847c-2.78228-4.26579-8.01493-7.54076-13.49532-8.44637l-59.99369-12.032c-5.56583-.96143-10.58804,.31857-13.3879,3.41214l-28.74081,34.64749c-3.47176,2.77077-3.60897,7.59492-.34053,11.97277l32.09599,47.05379c2.82537,4.25961,8.08744,7.50639,13.56815,8.37177l60.527,11.95211c5.56584,.96146,10.58807-.31854,13.3879-3.41214l19.47686-23.37536,13.0435-16.3891,19.40405-23.30066c2.79987-3.09358,7.82208-4.37357,13.38792-3.41214l32.26728,6.03372c5.44221,1.07571,10.58581,4.25985,13.60076,8.41957l16.91238,24.79411c2.99391,4.23674,3.07655,8.83068,.21289,11.83171l-15.35488,18.76042c-2.79984,3.09361-7.82205,4.3736-13.3879,3.41214l-32.26732-6.03382c-5.44222-1.07572-10.58581-4.25986-13.60079-8.41956l-11.08192-16.24647-12.78798,15.72057,11.04117,16.18672c2.81677,4.28188,8.09759,7.55099,13.60078,8.41959l60.4944,11.90434c5.56586,.96147,10.58807-.31853,13.3879-3.41214l28.74083-34.64741c2.54935-3.12376,2.45209-7.58516-.25744-11.80634l-32.10419-47.0658c-2.81677-4.2819-8.09758-7.55102-13.60078-8.4196l-60.48621-11.89232Z" style="fill:#fff;"/></svg>